# xmcd
#
# Track frame offsets: 
#        150
#        16968
#        35162
#        58141
#        73606
#        90595
#        109824
#        130039
#        147776
#        168638
#        184763
#
# Disc length: 2849 seconds
#
# Revision: 1
# Processed by: cddbd v1.5.2PL0 Copyright (c) Steve Scherf et al.
# Submitted via: ExactAudioCopy v0.99pb4
#
DISCID=9a0b1f0b
DTITLE=Pretty Ricky - Late Night Special
DYEAR=2007
DGENRE=R&B
TTITLE0=Late Night Special
TTITLE1=On The Hotline
TTITLE2=Love Like Honey
TTITLE3=Push It Baby
TTITLE4=Leave It All Up To You
TTITLE5=Stay
TTITLE6=So Confused ft. Butta Creame
TTITLE7=Go Getta ft. Meat and Bones
TTITLE8=Up And Down
TTITLE9=Peer Pressure
TTITLE10=Make It Like It Was
EXTD=
EXTT0=
EXTT1=
EXTT2=
EXTT3=
EXTT4=
EXTT5=
EXTT6=
EXTT7=
EXTT8=
EXTT9=
EXTT10=
PLAYORDER=
